
<global>
ampeg_release=0.50
</global>

<group>
group_label=Group_0-45
lpc_hicc1=42
lpc_locc1=0

<region>
hikey=a#2
hivel=127
lokey=a2
loop_end=238474
loop_mode=loop_continuous
loop_start=77520
loop_xfade=19503
lovel=0
lpc=UMIKQ6Coq8NTJJJDtm4Kw2T/oUKpkSbCNmUoQpq7TsJxyw9Ca0aHwRzLmkFess/BBpGzQPSc37/Bly7B0ZraQbuzycAjG4PAfpJvP7NnmEBc/FbBUliYQfm1sMHLMipB
lpc_rms=-25.08
pitch_keycenter=a#2
sample=Bassoon_trill_wholetone_PP_A#2.opus
</region>

<region>
hikey=a#3
hivel=127
lokey=a3
loop_end=264156
loop_mode=loop_continuous
loop_start=85868
loop_xfade=21603
lovel=0
lpc=YEsMQ7SYpMNsc4BD68nYwoVChEKZczPCpKgNQkrjrsCTRCfBhsmSQKwcsEAtQqDB0ooQQQc3kEAyMCPBxyqcQA/d90BcITXB4SsxQWyyuL9rpqLA9nsSwKjx2UCz7zrA
lpc_rms=-27.89
pitch_keycenter=a#3
sample=Bassoon_trill_wholetone_PP_A#3.opus
</region>

<region>
hivel=127
key=c2
loop_end=220655
loop_mode=loop_continuous
loop_start=71728
loop_xfade=18045
lovel=0
lpc=jg/DQp1kasOeOU5DdTIFw6BEtULEjBDCXWT3QQ4dc8EspjJAetoTwa0essCyqU1A9ZTfv1qLJr5ZpptAV/ohQDOfqsBIEShAJ1uYQL9DLcC4gy8/CkP/vyTxhsBOCWpA
lpc_rms=-26.24
sample=Bassoon_trill_wholetone_PP_C2.opus
</region>

<region>
hikey=c3
hivel=127
lokey=b2
loop_end=266902
loop_mode=loop_continuous
loop_start=86761
loop_xfade=21828
lovel=0
lpc=tyQvQzhA2sM2KLJDY0n9wuu5a0KzIh7CyaqtQROO7r9wjoy/RZhhQc2ms8HimqbBV8jJQYFBGMCHIfzAR39WQdP3RsBpy0c+2kt1QcIYrsERxv7AV7ygQKxqlkG4Ki/B
lpc_rms=-24.41
pitch_keycenter=c3
sample=Bassoon_trill_wholetone_PP_C3.opus
</region>

<region>
hikey=c4
hivel=127
lokey=b3
loop_end=264830
loop_mode=loop_continuous
loop_start=86087
loop_xfade=21658
lovel=0
lpc=CBQUQ8gTuMP/Vo9DG3uIwk51gUEoowDC4qMHQtszCMFByA7BXa5UQYVflMEYJuPAqxRKQX0Qj0H4LAnChAGkQbsvy0B7xXu/0nYFwTWVgj+i0WjBiQcYQRFNdkHrhC7B
lpc_rms=-27.10
pitch_keycenter=c4
sample=Bassoon_trill_wholetone_PP_C4.opus
</region>

<region>
hikey=d2
hivel=127
lokey=c#2
loop_end=255856
loop_mode=loop_continuous
loop_start=83170
loop_xfade=20924
lovel=0
lpc=PTAiQzStuMPstW5DUkKCwotum0JYji7Cz7v9QFuv3cDJtJJBHFAAwpCUOUGt3qq92GSIwPrjV0HKYH3BmVAGPwugPkFRGTRAPe0AwQzPmb8e1XRA/o0NQX0UscETkjlB
lpc_rms=-24.54
pitch_keycenter=d2
sample=Bassoon_trill_wholetone_PP_D2.opus
</region>

<region>
hikey=d3
hivel=127
lokey=c#3
loop_end=252879
loop_mode=loop_continuous
loop_start=82202
loop_xfade=20681
lovel=0
lpc=4rtdQ5cLC8TqmtxD9avxwqv4JUKJhYLCiz6KQhbOBcCQh9HBhGSNQPYf0MHDaP1A9NFxQdQjyUBLrA7CnrqqQZ8FskGs8+FAR8/TwR3Rs8GFrONBgo8WvpjNi8DkdTA/
lpc_rms=-24.09
pitch_keycenter=d3
sample=Bassoon_trill_wholetone_PP_D3.opus
</region>

<region>
hikey=d4
hivel=127
lokey=c#4
loop_end=248893
loop_mode=loop_continuous
loop_start=80907
loop_xfade=20355
lovel=0
lpc=TC3LQhSegsMLZ1pDkk90whQxW0EtIg3CY5oYQoQ0d8Bp/j7B+JO7QAh9wMBr07C/854dP/f6N0FWmb/BWn9RQaqAE0Gf5MlABWlkwe5B/8AjWxNBaICzwAKlJ0FUv5/A
lpc_rms=-29.86
pitch_keycenter=d4
sample=Bassoon_trill_wholetone_PP_D4.opus
</region>

<region>
hikey=e2
hivel=127
lokey=d#2
loop_end=269047
loop_mode=loop_continuous
loop_start=87458
loop_xfade=22003
lovel=0
lpc=tGwPQ8BmscNrd45DEXggw7/QNUNUYrPCcdldwO+qysEasBxCQR2LwA0ZaMEue2HANwf3wAWzqkG2sBzBgABRQBIuBUESTgPBsckDQJvPzcBjsYZAKKn8QJK/Y8Gew9hA
lpc_rms=-25.43
pitch_keycenter=e2
sample=Bassoon_trill_wholetone_PP_E2.opus
</region>

<region>
hikey=e3
hivel=127
lokey=d#3
loop_end=252871
loop_mode=loop_continuous
loop_start=82200
loop_xfade=20680
lovel=0
lpc=XDAGQ2jMpcO935xD0a1gw3TDHUNbgVTCYKkbQoq1OcJOgaBB2JQxwSTORMHCAnhByTtuQBoPWMBdB5PAgCJ7QV2ikMGUHm1BdVWrwJcyBsGt7YHAMNyrP4IeuEFKfWvB
lpc_rms=-23.56
pitch_keycenter=e3
sample=Bassoon_trill_wholetone_PP_E3.opus
</region>

<region>
hikey=e4
hivel=127
lokey=d#4
loop_end=248935
loop_mode=loop_continuous
loop_start=80920
loop_xfade=20358
lovel=0
lpc=XFKkQgMeTMPVnjNDv83HwgfdkEIUqRnCIIADQmDb/8GU53hBEPhewQbgZ785dM4/5X5wQW3zacCOxCLBhG29QPB/l8CR5aVARHEwQLxBP76loBrBsz+CQEqLl0B1GjLA
lpc_rms=-27.71
pitch_keycenter=e4
sample=Bassoon_trill_wholetone_PP_E4.opus
</region>

<region>
hikey=f#2
hivel=127
lokey=f2
loop_end=243374
loop_mode=loop_continuous
loop_start=79113
loop_xfade=19903
lovel=0
lpc=kYTlQvaqjMOruWdDxyfkwlBUx0IsuJDC+z0yQqq8EMLCkb9BDT/YwCcVXj4pC2vB4usoQVurlUBZ7QjBpzv2QF2I8sB2nspAr4U6P8l1nMARzSRB8KsewSVxPb891ERA
lpc_rms=-25.42
pitch_keycenter=f#2
sample=Bassoon_trill_wholetone_PP_F#2.opus
</region>

<region>
hikey=f#3
hivel=127
lokey=f3
loop_end=252215
loop_mode=loop_continuous
loop_start=81987
loop_xfade=20627
lovel=0
lpc=wf7nQgzVicNWPkhDC158wv/tdUK2Gk/C/dChQRuJBcD1fiDA9DGlwO+bg0AjwGTBqCjmQQpgvMGoty5BdjnDwCXKskB94Je9Ke/cPaiYt79hnwNAUokUwT52xUDXvSM/
lpc_rms=-24.47
pitch_keycenter=f#3
sample=Bassoon_trill_wholetone_PP_F#3.opus
</region>

<region>
hikey=f#4
hivel=127
lokey=f4
loop_end=257227
loop_mode=loop_continuous
loop_start=83616
loop_xfade=21036
lovel=0
lpc=ExjqQvODnsMtKZpD72oZwzZIrEIu/Z7CbkiYQifoTcLSEpRB9tdgQCQ+6MDtKMzAFUrSQG3Rk8BIwLzAhUsyQRoYF0HD1SnBvyWlQKPrwL+6m6nApBWCQIrzNMH0dxxB
lpc_rms=-26.07
pitch_keycenter=f#4
sample=Bassoon_trill_wholetone_PP_F#4.opus
</region>

<region>
hikey=g#2
hivel=127
lokey=g2
loop_end=246399
loop_mode=loop_continuous
loop_start=80096
loop_xfade=20151
lovel=0
lpc=ZtsOQ7GUtsMn9JhD6KoBw8qb3UKJUZfClPNYQcVnlcHiUhNCc7kkwSvTasEaJFzB75XWQRLl278ZVUTB0pc8wWIYrEHkHdNA+WZcQOipbsF6r2/AnkEYQGEtMkCuwK8+
lpc_rms=-24.48
pitch_keycenter=g#2
sample=Bassoon_trill_wholetone_PP_G#2.opus
</region>

<region>
hikey=g#3
hivel=127
lokey=g3
loop_end=229027
loop_mode=loop_continuous
loop_start=74449
loop_xfade=18730
lovel=0
lpc=JXKnQpIvVMNt0jRDDpunwnuNl0JrhIjC1owaQuPlqsErfxtBJCPbQOplh8HcJae/dwuEQcoKar8fygTBzmsFwdRMCkFJvTtA+lftQErJP8GiVo1AvvKKwLRzYUBXrbK+
lpc_rms=-28.01
pitch_keycenter=g#3
sample=Bassoon_trill_wholetone_PP_G#3.opus
</region>

<region>
hikey=D5
hivel=127
lokey=g4
loop_end=229745
loop_mode=loop_continuous
loop_start=74682
loop_xfade=18789
lovel=0
lpc=6Q3tQj0ci8POqUBDMho2wsMIK0LOcQbCthNOQYPf7cC5zZs/sBgDQT4HjcHmqlQ/XGZEQPeDnECc0wvAP2sCwVbIekG00njApYM3QPZN8r/EnPq+MaCawD8q18C+mhhB
lpc_rms=-24.11
pitch_keycenter=G#4
sample=Bassoon_trill_wholetone_PP_G#4.opus
</region>
</group>

<group>
group_label=Group_46-90
lpc_hicc1=84
lpc_locc1=43

<region>
hikey=a#2
hivel=127
lokey=a2
loop_end=258391
loop_mode=loop_continuous
loop_start=83994
loop_xfade=21132
lovel=0
lpc=DT/iQqzHkcPLxohDluQbw6rQyUJfL3HCzRVnQnZBXcLJYOVBcYN3waN1EkFQ5rnAkT7+v47XU79BR0TA9S8dQbC4WEHQHbDBDiJ8QRIiScEWeeY+72C+QCrOtMAkjUtA
lpc_rms=-20.96
pitch_keycenter=a#2
sample=Bassoon_trill_wholetone_MF_A#2.opus
</region>

<region>
hikey=a#3
hivel=127
lokey=a3
loop_end=257247
loop_mode=loop_continuous
loop_start=83622
loop_xfade=21038
lovel=0
lpc=kmYGQ5wCr8MEopJDpAutwvdMCULf67/Bx3WFQDEEl8BT8NHAO3LWQNct6b/yy6S/YgGeQGCyob8cmynBFruuQTnsBcA4MWPBNFxOQILWWcAnNGVANB/gQMjE38AmgfI/
lpc_rms=-16.31
pitch_keycenter=a#3
sample=Bassoon_trill_wholetone_MF_A#3.opus
</region>

<region>
hivel=127
key=c2
loop_end=268960
loop_mode=loop_continuous
loop_start=87430
loop_xfade=21996
lovel=0
lpc=lDJ+QrJUDMOkp+VCex22wuPAm0LbSRjCRJseQm8MrMF/5iNAA8xXwdwzGkBioW7A8LgjQTDUFsHZb49BlJZ/wdEKJkGOgBrBxK2WQA46QMDKV+pAVtFtwDoTy7+HcUk/
lpc_rms=-21.34
sample=Bassoon_trill_wholetone_MF_C2.opus
</region>

<region>
hikey=c3
hivel=127
lokey=b2
loop_end=262196
loop_mode=loop_continuous
loop_start=85231
loop_xfade=21443
lovel=0
lpc=kvcFQ69ds8N+1KdDuJkdwzgrn0JX0PXBDXZZQN2UzMB7KAXAV/m0QYQm1MGnJDzBPoiRQV6S2kBLfJTAQAZRvxuJFj9l9dhAEYytwEPJA8HKvrpAtP+nv4KrU0Cb+Ju/
lpc_rms=-18.72
pitch_keycenter=c3
sample=Bassoon_trill_wholetone_MF_C3.opus
</region>

<region>
hikey=c4
hivel=127
lokey=b3
loop_end=266599
loop_mode=loop_continuous
loop_start=86662
loop_xfade=21803
lovel=0
lpc=iuPyQpO3psO5NJ1D6wr8wsvFYkLCdTnCvpzMQXgAucGaJoZBmdkTv3hmgMFFXYw/wiynQXV/UcA8bjnB2z+3v7LNeEEmTsnAWwWLwLBV/sBKWg9BZYRUP1h3gEBM25LA
lpc_rms=-15.75
pitch_keycenter=c4
sample=Bassoon_trill_wholetone_MF_C4.opus
</region>

<region>
hikey=d2
hivel=127
lokey=c#2
loop_end=256477
loop_mode=loop_continuous
loop_start=83372
loop_xfade=20975
lovel=0
lpc=Eg0HQ4QLpMMjwH5DqUvGwhTQmkKcRiPCr38PwPlzbEGXfCbBNZJMP0J3JcHFTQ5B/abNwCFnNkHWeovAqOwGwRsGdUHwZQrBevzEQIuMFMF3DxJB8UUkQA5fk8GKpzFB
lpc_rms=-21.44
pitch_keycenter=d2
sample=Bassoon_trill_wholetone_MF_D2.opus
</region>

<region>
hikey=d3
hivel=127
lokey=c#3
loop_end=260437
loop_mode=loop_continuous
loop_start=84659
loop_xfade=21299
lovel=0
lpc=hY8wQ36t98O3u+1DYVc+w7tAuUJ3RujCGGq6Qq6PhcHDni7CMb0IQiP/vsF9olBAHVyuQVup/T/IOITBDLMtwV7H+0HxLqHAnMV2waGaXsEgcbtBgUOSQEHUW8EE/o1A
lpc_rms=-18.66
pitch_keycenter=d3
sample=Bassoon_trill_wholetone_MF_D3.opus
</region>

<region>
hikey=d4
hivel=127
lokey=c#4
loop_end=264152
loop_mode=loop_continuous
loop_start=85867
loop_xfade=21603
lovel=0
lpc=BXKIQh2iPcPwU0FDwxPMws0qUkJjBiLCdUYPQsthtcG4ePtAJ0O5vQ9E3sAUXiS/2rESQUPFb7wzU0LBGF3NQM+vmUBMx9xAoOJOwQQAEcBgCXpA3CIDQDd3oj/32Pa/
lpc_rms=-22.61
pitch_keycenter=d4
sample=Bassoon_trill_wholetone_MF_D4.opus
</region>

<region>
hikey=e2
hivel=127
lokey=d#2
loop_end=254533
loop_mode=loop_continuous
loop_start=82740
loop_xfade=20816
lovel=0
lpc=cMPxQpu5p8MLq6xDJelmwxU5UEMQZxPDAlsHQt2CIsC+1BBCOtjjwb7wAcHnGYZAQS59wEvHr0GKMH3BiPquv8mWFj3SIydBu0qUwONvyb8M4E1Ac7b1wNyT7j/onh9A
lpc_rms=-18.65
pitch_keycenter=e2
sample=Bassoon_trill_wholetone_MF_E2.opus
</region>

<region>
hikey=e3
hivel=127
lokey=d#3
loop_end=255602
loop_mode=loop_continuous
loop_start=83087
loop_xfade=20904
lovel=0
lpc=rMEBQ5ahp8NUYZ9DthVKwzfnI0P3AtfCPQO/Qj32z8KszTdCsIPfwGUcm8G9pApCcwTcwAcPukDJ06bBeomNQZE8s8G5Z6lBZ4TTwH2LmUAhpYTBcCRXQRzYpkCjP93A
lpc_rms=-17.24
pitch_keycenter=e3
sample=Bassoon_trill_wholetone_MF_E3.opus
</region>

<region>
hikey=e4
hivel=127
lokey=d#4
loop_end=251048
loop_mode=loop_continuous
loop_start=81607
loop_xfade=20531
lovel=0
lpc=JSt1QlW2HcPVBApD1PdgwpFtFkJI4TPCUnYyQpUi4cE3v01BrnVqwWKy2D/uXfdAFXuhQFv/dcDklh7B0xGmQMcrAEEyhT/AxnsewLwZx8D9QcxAlxzQP9xmv7/v9Ay/
lpc_rms=-20.33
pitch_keycenter=e4
sample=Bassoon_trill_wholetone_MF_E4.opus
</region>

<region>
hikey=f#2
hivel=127
lokey=f2
loop_end=263376
loop_mode=loop_continuous
loop_start=85615
loop_xfade=21539
lovel=0
lpc=5BilQgL1RcNo0BtDkpCdwsDzsUIYoJPCAnU4QieBGcL059xBlMRTwQeeNUBYLCbBj4U2QRz9K8BPCo2+tPLWQOVh0MBq+4rAydVKQTtUO8G7P/NAOXMjwN0IV8DPqTlA
lpc_rms=-20.44
pitch_keycenter=f#2
sample=Bassoon_trill_wholetone_MF_F#2.opus
</region>

<region>
hikey=f#3
hivel=127
lokey=f3
loop_end=259176
loop_mode=loop_continuous
loop_start=84249
loop_xfade=21196
lovel=0
lpc=bIbxQgqym8NRsohDCPwNwzaOEkN2PA/DNzDEQvwlisKgmVdC4IEdwuLETkHFjw3BxSpGQRSXsr9+/yLB5kGWQUHeOcH7JZ0+XvCZQA+XicCDSw9A3Xj1v3yvScCVh2hA
lpc_rms=-17.25
pitch_keycenter=f#3
sample=Bassoon_trill_wholetone_MF_F#3.opus
</region>

<region>
hikey=f#4
hivel=127
lokey=f4
loop_end=258410
loop_mode=loop_continuous
loop_start=84000
loop_xfade=21133
lovel=0
lpc=q6B4QlCmKsPY7ipDcSO5wq8ka0KmTUHC6F0fQni/2MGJXABBsyOrv/MxbL/q9Q7AV97FQHz3iz7xcJjARAKZv0A0NUHgxg7BWG84PcFUuD8wcyPANT+nQN5Hs8CsgDNA
lpc_rms=-18.01
pitch_keycenter=f#4
sample=Bassoon_trill_wholetone_MF_F#4.opus
</region>

<region>
hikey=g#2
hivel=127
lokey=g2
loop_end=267065
loop_mode=loop_continuous
loop_start=86814
loop_xfade=21841
lovel=0
lpc=ICvvQj0LpsP6oKZDLgg5w4/NDkO1IwDDDiydQgR9M8LbMRBCMTbDwfVTscCme5NAzS1GQb5Eg0AzzaPB+CyHQLH6QUHcIBe+O77yP6twTMEFkUzAeJq9QGXGCkGs5bvA
lpc_rms=-19.92
pitch_keycenter=g#2
sample=Bassoon_trill_wholetone_MF_G#2.opus
</region>

<region>
hikey=g#3
hivel=127
lokey=g3
loop_end=247081
loop_mode=loop_continuous
loop_start=80318
loop_xfade=20207
lovel=0
lpc=6ieHQv3UK8NIGhBDOHaAwgkdhkI3f4DC4dUNQmKNmMEjiN1AdiEMP+3cAcH5Q/i8EENaQYR3QMCm8Z7A9riuwI0c10A89a1A9tNewKeepcCrs+s/YOR7wAs3F0F7lIrA
lpc_rms=-21.49
pitch_keycenter=g#3
sample=Bassoon_trill_wholetone_MF_G#3.opus
</region>

<region>
hikey=D5
hivel=127
lokey=g4
loop_end=263540
loop_mode=loop_continuous
loop_start=85668
loop_xfade=21553
lovel=0
lpc=/Sl6QrEYHsOz8+RCwjTYwNNXEUG3eefBaujUv8MOY0GE/9vA0PNAQSdHN8HAVtvAbFUIQbkzDkGSRVjBIo3JPz/OFEHu6irAwaWgwNx+SD9Ryei/r5DnQCctysB9GhtA
lpc_rms=-17.79
pitch_keycenter=G#4
sample=Bassoon_trill_wholetone_MF_G#4.opus
</region>
</group>

<group>
group_label=Group_91-127
lpc_hicc1=127
lpc_locc1=85

<region>
hikey=a#2
hivel=127
lokey=a2
loop_end=274459
loop_mode=loop_continuous
loop_start=89217
loop_xfade=22446
lovel=0
lpc=6mOwQs/vbMOU8GlD5KgCw6lYp0Jw/2bCYfUJQoVfZMFym1K/ubS7P/WOR0A644HB40FXQWVGUEDvAsvAweyBQCB2XL+8Kxy/RwqrQGrS48BNjbvAxl0PQYDnwT84Xi7A
lpc_rms=-17.47
pitch_keycenter=a#2
sample=Bassoon_trill_wholetone_FF_A#2.opus
</region>

<region>
hikey=a#3
hivel=127
lokey=a3
loop_end=251742
loop_mode=loop_continuous
loop_start=81833
loop_xfade=20588
lovel=0
lpc=sv31QhAAqMMCKKJD05UbwydpsUKQL3PCZwvrQfHSccGQ2SQ/1WoLvoU9/kC35X3BfQxJQecJV0ATg4TBrpK+QdroDMFKfyLBejgNQYNiP8BcjhW/OkI3wLx5B0H+5HfA
lpc_rms=-15.34
pitch_keycenter=a#3
sample=Bassoon_trill_wholetone_FF_A#3.opus
</region>

<region>
hivel=127
key=c2
loop_end=247797
loop_mode=loop_continuous
loop_start=80550
loop_xfade=20265
lovel=0
lpc=h3mUQmEIO8N8AyVDuYi2wgIMjUKJPf/BHS9DQbYkecGTywJBDfhrwXpL6EBXb049jaifP+QNI0GWuJS/9e2swPb0qr8XKV3AWeWOv05HVEAVK5k/acG3QESLwsCNrCw/
lpc_rms=-17.79
sample=Bassoon_trill_wholetone_FF_C2.opus
</region>

<region>
hikey=c3
hivel=127
lokey=b2
loop_end=266287
loop_mode=loop_continuous
loop_start=86561
loop_xfade=21777
lovel=0
lpc=0GDiQuv2mMP1LJVDftElw0vm50IAcInCfUKPQSHbBsGJf89AwOFPv3EnK8DpTgPBTRpcQbowKMBqRyLARj/nvvkRyD5u9AlBaX4VwbOC7j+DbG/AO2mSvloqGkHcBq/A
lpc_rms=-16.27
pitch_keycenter=c3
sample=Bassoon_trill_wholetone_FF_C3.opus
</region>

<region>
hikey=c4
hivel=127
lokey=b3
loop_end=264099
loop_mode=loop_continuous
loop_start=85849
loop_xfade=21599
lovel=0
lpc=qF0BQ+g8tcPDxbZD9AYwwwUDqkLu0X7CPTcXQgzVuMEVwmZBZTNMwBcqZMEQM7a/D121QahBukAB8a3BAZuKvkE2j0HvP63B+GCVQXe8hMEdznVBZPx5wdJuhUEZNfrA
lpc_rms=-14.18
pitch_keycenter=c4
sample=Bassoon_trill_wholetone_FF_C4.opus
</region>

<region>
hikey=d2
hivel=127
lokey=c#2
loop_end=264971
loop_mode=loop_continuous
loop_start=86133
loop_xfade=21670
lovel=0
lpc=XkZ9QuAvE8MsXPZCqHSfwt2TgEI5ScrBlQmQQXRyvcE9HEJBk5QEwdLdjMCttUBBTcQAwcro40AiIA2/pkaPwDrsvUAA4kbArK/Ov6kmpT54gDXA9sa7QLRgar+o7Ka/
lpc_rms=-14.64
pitch_keycenter=d2
sample=Bassoon_trill_wholetone_FF_D2.opus
</region>

<region>
hikey=d3
hivel=127
lokey=c#3
loop_end=249571
loop_mode=loop_continuous
loop_start=81127
loop_xfade=20410
lovel=0
lpc=qMfgQgYvmsNcv5lDWBcnw/Mr40LRHMXC4/iTQmEFLsKdaIRBl7klwf9Ay715dum+Dh0AQaETDUBWiSfBGUHeQG+tNL8ZmqxAqwWOwFrY7sDBZbFAZPqvwGldVkHF1+bA
lpc_rms=-17.41
pitch_keycenter=d3
sample=Bassoon_trill_wholetone_FF_D3.opus
</region>

<region>
hikey=d4
hivel=127
lokey=c#4
loop_end=257817
loop_mode=loop_continuous
loop_start=83808
loop_xfade=21085
lovel=0
lpc=yuJYQiozF8MZriBDVMLEwlzrfUJ/WljCQi9AQmFT4sGWts9AWuHuv0Zjhj1RVxTAZp66QJydhz94yNDAOW9YQP96aL/FzpdAHy8BwOyUC8EnPhFBPVHSwA/9C0EYa4/A
lpc_rms=-18.04
pitch_keycenter=d4
sample=Bassoon_trill_wholetone_FF_D4.opus
</region>

<region>
hikey=e2
hivel=127
lokey=d#2
loop_end=236753
loop_mode=loop_continuous
loop_start=76960
loop_xfade=19362
lovel=0
lpc=r0YIQqJansLHApNCrgljwgK7H0J9KgHBprPdP+Dc+MBgjOs/yn2bPsdEMz4S7wO/QOw5QBDJxb/hKU4/4FQpPxUykcDk3khAqQ3JvtGxAUDJ38y/IkQRv7iIwr8s9gBA
lpc_rms=-17.52
pitch_keycenter=e2
sample=Bassoon_trill_wholetone_FF_E2.opus
</region>

<region>
hikey=e3
hivel=127
lokey=d#3
loop_end=267014
loop_mode=loop_continuous
loop_start=86797
loop_xfade=21837
lovel=0
lpc=A6WHQgTzLsMcby5DxDzswgorzUITwsHC5su8QiwYp8J9xmdC/lAWwgUwqkEwbDjBmOZTQP1MvUCi1rnADrKsPwzerD+hXmRA46u6wAP2pcC3DfZAb/nJv7aUnkAF7IjA
lpc_rms=-15.49
pitch_keycenter=e3
sample=Bassoon_trill_wholetone_FF_E3.opus
</region>

<region>
hikey=e4
hivel=127
lokey=d#4
loop_end=256452
loop_mode=loop_continuous
loop_start=83364
loop_xfade=20973
lovel=0
lpc=3DlLQuTdBMOiWQBD60aMwgGFR0LYaVjCo4RTQjrr0cG5YndASPqzwEcsS8DeY0NBOCMCwaGOLUGWq3zB5Cc6QY1gYcDMs4JA5aPgwBJH1D+tYVk/XkE/P8iA6z+PrAHA
lpc_rms=-16.47
pitch_keycenter=e4
sample=Bassoon_trill_wholetone_FF_E4.opus
</region>

<region>
hikey=f#2
hivel=127
lokey=f2
loop_end=259988
loop_mode=loop_continuous
loop_start=84513
loop_xfade=21262
lovel=0
lpc=R/+VQhBMRcO1kkRDE5cIwyiH+kIhicLCPwVhQg5MDsLxXvJBoFKfwR1RMkDgQ+3A4awmQV9xDb9M0gK/DEg4QNBPCcFP+/FAWJg+wHvAFr8DDWZAesk7wHfhBj/ADfo9
lpc_rms=-16.77
pitch_keycenter=f#2
sample=Bassoon_trill_wholetone_FF_F#2.opus
</region>

<region>
hikey=f#3
hivel=127
lokey=f3
loop_end=266658
loop_mode=loop_continuous
loop_start=86681
loop_xfade=21808
lovel=0
lpc=jzC6QpfldcNkq2pD2aMLw17H+UIY3NvC4xadQv1EXcL5Xg9CwivXwfPPU0G7PCrB2zw5QXd/iEAz917BhXo9QWFXB8FbxitB0MmZwGTKPsE2qHxBlH8bwe+LqEA2Rbq/
lpc_rms=-14.07
pitch_keycenter=f#3
sample=Bassoon_trill_wholetone_FF_F#3.opus
</region>

<region>
hikey=f#4
hivel=127
lokey=f4
loop_end=254622
loop_mode=loop_continuous
loop_start=82769
loop_xfade=20823
lovel=0
lpc=A2+HQqXWO8PHvkJD253rwtLHuEIZvbvC67edQqKsOMLfA6NBNkxkwbr5AkFGbRjBSqUlQbwHj7wlkmPAU2beP9lEJ0BmbYzAm6atv599y0DRDr7A4qZlP0btZD9EPA0/
lpc_rms=-16.45
pitch_keycenter=f#4
sample=Bassoon_trill_wholetone_FF_F#4.opus
</region>

<region>
hikey=g#2
hivel=127
lokey=g2
loop_end=258551
loop_mode=loop_continuous
loop_start=84046
loop_xfade=21145
lovel=0
lpc=yjFZQjkOFsMqvyJDrtrfwoV4qELRo4HC14kmQh7FlsE8IsBAWT5rwPHEQb800DbAS/jMQC4ReECvHTvB7BbxQLXSR78xFcu/Z/HtQBp9U8FmizZBrdsnwXl7GEF/PGHA
lpc_rms=-18.20
pitch_keycenter=g#2
sample=Bassoon_trill_wholetone_FF_G#2.opus
</region>

<region>
hikey=g#3
hivel=127
lokey=g3
loop_end=264079
loop_mode=loop_continuous
loop_start=85843
loop_xfade=21597
lovel=0
lpc=FSWFQnROM8NtXDJDyffcwtlxu0IWo6fCzIqIQvaDSsK/hvxBS4HQwaOYSEFqRLvAzyBnQackM8Hfa4lAlGh/wIWygkA4UZq/Yi1rv7NqKr9Cg29AjU/6wFTeBUHdjEXA
lpc_rms=-17.54
pitch_keycenter=g#3
sample=Bassoon_trill_wholetone_FF_G#3.opus
</region>

<region>
hikey=D5
hivel=127
lokey=g4
loop_end=245992
loop_mode=loop_continuous
loop_start=79963
loop_xfade=20118
lovel=0
lpc=D6OEQoppL8OjJBVDGK4FwqQtpkDFTZLBhNuxv/VDn0HZI0/BU6M8P8x7BcH4iyFBuAuuQAuW3j+e92jBlnOdvh0fEkF04v8+hJINwF7MCECyD8XAVRhZQDP3mz68wY0+
lpc_rms=-15.58
pitch_keycenter=G#4
sample=Bassoon_trill_wholetone_FF_G#4.opus
</region>
</group>